<svg aria-hidden="true" style="position:absolute;width:0;height:0;overflow:hidden" xmlns="http://www.w3.org/2000/svg"><defs><symbol id="icon-Client6" viewBox="0 0 64 32"><path d="M18.291 9.249a.688.688 0 0 1-.123-.395c0-.015 0-.031.002-.046v.002-.636c0-.195.04-.343.121-.445s.219-.152.416-.151c.185 0 .316.043.393.13a.56.56 0 0 1 .116.381v.149h-.33V8.067a.968.968 0 0 0-.01-.133l.001.005a.144.144 0 0 0-.047-.088.175.175 0 0 0-.106-.035l-.015.001h.001-.014a.193.193 0 0 0-.113.037.168.168 0 0 0-.054.096v.001a.757.757 0 0 0-.013.157v.772a.43.43 0 0 0 .042.217.157.157 0 0 0 .065.052h.001a.156.156 0 0 0 .066.014l.02-.001h-.001l.014.001a.166.166 0 0 0 .104-.036.157.157 0 0 0 .049-.093v-.001a.89.89 0 0 0 .01-.155v-.157h.33v.143a.617.617 0 0 1-.116.402l.001-.002c-.076.095-.205.142-.395.142s-.334-.05-.415-.155zm1.375.006c-.083-.099-.125-.243-.125-.434v-.669c0-.189.042-.332.125-.429s.223-.146.418-.145c.194 0 .333.048.416.145s.126.24.126.429v.669c0 .189-.043.334-.127.434s-.223.149-.415.149c-.192 0-.334-.05-.418-.149zm.572-.16a.4.4 0 0 0 .04-.198v-.82l.001-.022a.388.388 0 0 0-.041-.174l.001.002a.162.162 0 0 0-.066-.053h-.001a.166.166 0 0 0-.064-.013l-.024.002h.001a.164.164 0 0 0-.088.011h.001a.16.16 0 0 0-.067.053.383.383 0 0 0-.04.194V8.9a.39.39 0 0 0 .04.198.208.208 0 0 0 .068.049l.001.001a.211.211 0 0 0 .171-.001l-.001.001a.202.202 0 0 0 .069-.049v-.004zm.786-1.498h.356l.267 1.235.273-1.235h.346l.035 1.783h-.256l-.027-1.239-.264 1.239h-.205l-.273-1.243-.025 1.243h-.258l.032-1.782zm1.676 0h.554c.319 0 .479.169.479.506 0 .323-.168.484-.504.484h-.189v.792h-.342l.002-1.782zm.473.762a.24.24 0 0 0 .187-.057.306.306 0 0 0 .049-.201v-.02a.59.59 0 0 0-.018-.146l.001.004a.134.134 0 0 0-.025-.049.127.127 0 0 0-.042-.035h-.001a.325.325 0 0 0-.134-.029l-.019.001h.001-.133v.532h.133zm1.052-.762h.367l.377 1.783h-.319l-.074-.411h-.327l-.077.411h-.323l.377-1.782zm.314 1.165-.128-.748-.128.748h.256zm.734-1.165h.239l.458 1.017V7.597h.284v1.782h-.228l-.461-1.062v1.062h-.293l.001-1.782zM26.919 8.7l-.381-1.1h.321l.232.707.218-.707h.314l-.376 1.1v.68h-.328V8.7zm-8.1 1.459v.093h-.279v.724h-.117v-.724h-.28v-.093h.676zm.875.817h-.092a.036.036 0 0 1-.023-.008.043.043 0 0 1-.015-.018l-.081-.194h-.387l-.081.194a.066.066 0 0 1-.012.022.038.038 0 0 1-.023.008h-.092l.342-.817h.119l.346.814zm-.567-.303h.323l-.137-.333a.748.748 0 0 1-.025-.072l-.001-.004-.013.043-.012.034-.135.332zm1.156.223a.333.333 0 0 0 .119-.01.462.462 0 0 0 .052-.016l-.003.001.046-.02v-.184h-.139a.025.025 0 0 1-.017-.006.02.02 0 0 1-.007-.014v-.064h.265v.313a.494.494 0 0 1-.141.066l-.004.001a.577.577 0 0 1-.083.017h-.003c-.03.003-.064.005-.099.005h-.005a.47.47 0 0 1-.172-.032l.003.001a.384.384 0 0 1-.224-.213l-.001-.003a.435.435 0 0 1-.031-.164v-.012c0-.059.011-.116.032-.168l-.001.003a.384.384 0 0 1 .225-.215.599.599 0 0 1 .278-.023.385.385 0 0 1 .209.096l-.033.051a.03.03 0 0 1-.011.011.027.027 0 0 1-.016.004.038.038 0 0 1-.021-.007.363.363 0 0 1-.035-.02l.002.001a.256.256 0 0 0-.044-.021l-.002-.001a.471.471 0 0 0-.06-.018h-.003a.425.425 0 0 0-.082-.007H20.268a.37.37 0 0 0-.13.023l.003-.001a.288.288 0 0 0-.101.065.294.294 0 0 0-.064.102.398.398 0 0 0 .001.275l-.001-.003a.294.294 0 0 0 .168.168c.044.014.09.02.135.016zm1.09-.013h.373v.093h-.487v-.818h.117l-.003.724zm.762.093h-.117v-.817h.117v.818zm.434-.813a.065.065 0 0 1 .018.015l.5.616v-.015l.001-.015v.001-.609h.102v.821h-.063a.054.054 0 0 1-.022-.005.065.065 0 0 1-.018-.015l-.499-.615v.636h-.098v-.817h.061a.04.04 0 0 1 .019.004zm1.48-.004v.09h-.414v.27h.336v.087h-.336v.279h.414v.09h-.535v-.816h.535zM11.798 5.11l5.191 1.395v4.89L11.798 10V5.109zm-.333-.417v5.545l5.857 1.575V6.268l-5.857-1.575z"/><path d="m14.604 14.387-5.857-1.576V7.266l5.857 1.575v5.545z"/><path d="m11.562 5.047 5.124 1.378-2.179 2.063-5.124-1.379 2.18-2.063zm-.097-.354L8.746 7.266l5.857 1.575 2.718-2.573-5.857-1.575zm3.469 9.382 2.388-2.261-2.388-.643v2.904z"/></symbol><symbol id="icon-Client5" viewBox="0 0 64 32"><path fill="#afb1b8" style="fill:var(--color1, #afb1b8)" d="M.957 8.379a.336.336 0 0 1 .074.215v.017a.34.34 0 0 1-.114.255.49.49 0 0 1-.333.099H0V7.599h.572l.032-.001a.48.48 0 0 1 .286.093L.889 7.69A.312.312 0 0 1 1 7.929v.017-.001a.322.322 0 0 1-.066.209.316.316 0 0 1-.174.107.33.33 0 0 1 .198.117zm-.685-.206h.244a.235.235 0 0 0 .156-.045.16.16 0 0 0 .053-.12l-.001-.014v.001-.012a.17.17 0 0 0-.052-.122.236.236 0 0 0-.141-.047l-.02.001h.001-.24v.358zm.424.524a.168.168 0 0 0 .058-.128v-.011.001-.01a.172.172 0 0 0-.059-.13.25.25 0 0 0-.15-.05l-.017.001h.001-.256v.376h.26a.26.26 0 0 0 .164-.047zm1.431.27-.318-.534h-.12v.534h-.274V7.601h.518l.036-.001c.124 0 .238.044.326.118l-.001-.001a.434.434 0 0 1 .037.566l.001-.001a.417.417 0 0 1-.247.139l.339.546h-.298zm-.437-.721h.224c.156 0 .233-.069.233-.207v-.012a.203.203 0 0 0-.058-.142.241.241 0 0 0-.155-.056l-.022.001h.001-.227l.003.416zm1.935.446h-.546l-.096.275h-.287l.501-1.351h.31l.499 1.351h-.287l-.094-.275zm-.073-.207-.199-.577-.199.577h.399zm1.947.482h-.272l-.609-.929v.929h-.271V7.601h.271l.609.934v-.934h.272v1.366zm1.552-.327a.597.597 0 0 1-.243.24l-.003.002a.792.792 0 0 1-.382.086h-.484V7.602h.505c.132 0 .256.031.366.087l-.005-.002c.104.052.19.136.246.238a.794.794 0 0 1-.002.721l.002-.005zm-.312-.033a.503.503 0 0 0-.001-.653l.001.001a.47.47 0 0 0-.311-.117l-.031.001h.001-.189v.884h.189a.47.47 0 0 0 .34-.116h-.001zM3.795 0s3.51 1.33 3.435 3.255v3.256S3.723 5.18 3.796 3.255L3.795 0zm6.562 5.749a4.743 4.743 0 0 1 2.209-.823l.021-.002V3.905a4.61 4.61 0 0 0-2.219 1.826l-.011.019z"/><path fill="#afb1b8" style="fill:var(--color1, #afb1b8)" d="M9.958 6.056a4.799 4.799 0 0 1 2.595-2.354l.033-.011V.754S7.588 2.649 7.693 5.39v4.636s.223-.085.573-.244c0-.148 0-.298.016-.448a4.822 4.822 0 0 1 1.669-3.273l.006-.005z"/><path fill="#afb1b8" style="fill:var(--color1, #afb1b8)" d="M9.483 7.779c.026-.322.085-.64.175-.949A4.457 4.457 0 0 0 8.6 9.625v.005c.407-.196.722-.365 1.03-.546l-.068.037a4.676 4.676 0 0 1-.076-1.36l-.001.018zm.199.016a4.613 4.613 0 0 0 .067 1.245l-.005-.029c1.365-.82 2.9-2.088 2.841-3.62v-.133a4.472 4.472 0 0 0-2.6 1.22l.001-.001a4.465 4.465 0 0 0-.303 1.303l-.001.016z"/></symbol><symbol id="icon-Client4" viewBox="0 0 64 32"><path fill="#afb1b8" style="fill:var(--color1, #afb1b8)" d="M2.646 2.737a.863.863 0 0 0-.874.852v.001c0 .47.391.852.874.852h.001a.863.863 0 0 0 .874-.852v-.001a.863.863 0 0 0-.874-.851zm6.45-.272c-.002-.653-.268-1.279-.742-1.741A2.57 2.57 0 0 0 4.78.723a2.433 2.433 0 0 0-.742 1.742v3.602s5.058-.549 5.059-3.602zM0 7.25c.002.476.2.904.516 1.211.321.311.76.504 1.243.504.483 0 .922-.192 1.243-.504.317-.307.515-.736.517-1.211V4.743s-3.52.383-3.52 2.506zm1.76.449h-.001a.463.463 0 0 1-.257-.077l.002.001a.46.46 0 0 1-.169-.199l-.001-.003a.435.435 0 0 1-.026-.262v.003a.452.452 0 0 1 .359-.352h.003a.474.474 0 0 1 .473.191.436.436 0 0 1 .042.425l.001-.003c-.023.055-.057.105-.1.146s-.094.075-.15.098a.458.458 0 0 1-.177.034v-.002zm3.593-.279h-.36v.372h-.188v-.91h.593v.152h-.405v.235h.36v.151zm.901-.063c0 .09-.016.168-.048.236a.358.358 0 0 1-.332.211h-.008a.382.382 0 0 1-.202-.054.353.353 0 0 1-.136-.153l-.001-.002a.53.53 0 0 1-.05-.225v-.053c0-.09.016-.169.048-.236a.363.363 0 0 1 .34-.212.357.357 0 0 1 .339.212.55.55 0 0 1 .049.236v.041zm-.19-.041a.388.388 0 0 0-.051-.218.166.166 0 0 0-.139-.074h-.015a.166.166 0 0 0-.138.073v.001a.383.383 0 0 0-.052.215v.044c0 .093.017.165.051.216s.083.077.147.077h.007a.164.164 0 0 0 .137-.073v-.001a.383.383 0 0 0 .051-.216v-.044zm.798.237v-.005a.098.098 0 0 0-.037-.076.49.49 0 0 0-.135-.06 1.026 1.026 0 0 1-.16-.065l.005.003c-.103-.056-.155-.131-.155-.226 0-.049.014-.093.041-.131s.068-.069.119-.091c.052-.022.11-.032.175-.032s.123.012.174.036c.051.023.09.057.118.099s.043.092.043.146h-.188c0-.042-.013-.074-.039-.097s-.063-.035-.111-.035a.177.177 0 0 0-.107.029.092.092 0 0 0-.038.074v.002c0 .029.015.054.045.074s.074.039.132.056c.107.032.184.072.233.119s.073.107.073.177c0 .079-.03.141-.089.186s-.14.067-.241.067a.472.472 0 0 1-.191-.038.302.302 0 0 1-.131-.105l-.001-.001a.27.27 0 0 1-.045-.15v-.006h.188c0 .1.06.151.18.151a.174.174 0 0 0 .104-.027.09.09 0 0 0 .038-.073V7.55zm1-.519h-.279v.758h-.188v-.758H7.12v-.152h.741v.152zm.655.364h-.36v.244h.422v.151h-.61v-.91h.609v.152h-.421v.217h.36v.147zm.51.061h-.149v.333H8.69v-.91h.338c.108 0 .19.024.249.072s.087.116.087.203a.283.283 0 0 1-.041.156.273.273 0 0 1-.12.098l-.002.001.197.372v.009h-.201l-.171-.333zm-.15-.152h.151a.154.154 0 0 0 .109-.036.13.13 0 0 0 .039-.093v-.007c0-.043-.012-.077-.037-.101s-.061-.037-.112-.037h-.151v.273zm1.137.164v.321h-.188v-.91h.355c.068 0 .128.012.18.038a.285.285 0 0 1 .162.264c0 .089-.031.16-.092.211s-.145.077-.253.077h-.164zm0-.152h.167c.05 0 .087-.012.113-.035s.039-.057.039-.1v-.007a.15.15 0 0 0-.04-.102.147.147 0 0 0-.109-.043h-.172v.286zm1.186.079h-.36v.244h.422v.151h-.61v-.91h.609v.152h-.421v.217h.36v.147zm.87-.364h-.279v.758h-.188v-.758h-.275v-.152h.741v.152zm.655.364h-.36v.244h.422v.151h-.61v-.91h.609v.152h-.421v.217h.36v.147zm.509.061h-.149v.333h-.188v-.91h.338c.108 0 .191.024.249.072s.087.116.087.203a.283.283 0 0 1-.041.156.273.273 0 0 1-.12.098l-.002.001.197.372v.009h-.201l-.171-.333zm-.149-.152h.151c.047 0 .084-.012.109-.036a.13.13 0 0 0 .039-.093v-.007c0-.043-.012-.077-.037-.101s-.061-.037-.112-.037h-.151v.273zm1.102.246v-.005a.098.098 0 0 0-.037-.076.49.49 0 0 0-.135-.06 1.026 1.026 0 0 1-.16-.065l.005.003c-.103-.056-.155-.131-.155-.226 0-.049.014-.093.041-.131s.068-.069.119-.091c.052-.022.11-.032.175-.032s.123.012.174.036c.051.023.09.057.118.099s.043.092.043.146h-.188c0-.042-.013-.074-.039-.097s-.063-.035-.111-.035a.175.175 0 0 0-.107.029.092.092 0 0 0-.038.074v.002c0 .029.015.054.045.074s.074.039.132.056c.107.032.184.072.233.119s.073.107.073.177c0 .079-.03.141-.089.186s-.14.067-.241.067a.472.472 0 0 1-.191-.038.302.302 0 0 1-.131-.105l-.001-.001a.27.27 0 0 1-.045-.15v-.006h.188c0 .1.06.151.18.151.045 0 .08-.009.105-.027a.088.088 0 0 0 .037-.073V7.55z"/></symbol><symbol id="icon-Client3" viewBox="0 0 64 32"><path fill="#afb1b8" style="fill:var(--color1, #afb1b8)" d="M15.22 14.036c.007 0 .013.003.017.007l.044.046a.352.352 0 0 1-.124.087.434.434 0 0 1-.175.031h-.009a.44.44 0 0 1-.159-.03l.003.001a.356.356 0 0 1-.203-.208l-.001-.002a.444.444 0 0 1-.028-.158V13.797c0-.057.011-.111.031-.161l-.001.003a.373.373 0 0 1 .217-.21.466.466 0 0 1 .169-.029.424.424 0 0 1 .158.027.427.427 0 0 1 .118.074l-.037.049a.038.038 0 0 1-.009.009c-.004.002-.008.004-.013.004h-.002a.03.03 0 0 1-.016-.005l-.02-.013-.028-.017a.315.315 0 0 0-.085-.029h-.002a.373.373 0 0 0-.06-.005h-.01a.32.32 0 0 0-.12.023l.002-.001a.3.3 0 0 0-.096.062.297.297 0 0 0-.062.098.364.364 0 0 0-.023.13.35.35 0 0 0 .023.132.288.288 0 0 0 .061.098.247.247 0 0 0 .091.061.31.31 0 0 0 .113.021.502.502 0 0 0 .067-.004.248.248 0 0 0 .145-.067.037.037 0 0 1 .021-.009zm1.268-.231a.417.417 0 0 1-.112.289.386.386 0 0 1-.127.082l-.003.001a.502.502 0 0 1-.337-.001l.003.001a.392.392 0 0 1-.129-.083.377.377 0 0 1-.082-.125l-.001-.002a.446.446 0 0 1 .001-.329l-.001.003a.387.387 0 0 1 .083-.128.384.384 0 0 1 .126-.079l.003-.001a.472.472 0 0 1 .337.001l-.003-.001a.364.364 0 0 1 .213.209c.02.052.03.108.03.164zm-.115 0v-.007a.375.375 0 0 0-.022-.126l.001.003a.262.262 0 0 0-.15-.159l-.002-.001a.368.368 0 0 0-.245.001l.002-.001a.257.257 0 0 0-.151.158l-.001.002a.416.416 0 0 0 0 .261c.025.073.08.131.15.158l.002.001a.362.362 0 0 0 .243 0 .25.25 0 0 0 .152-.159.364.364 0 0 0 .021-.131zm.98.137.012.029.013-.029.015-.03-.001.001.28-.486c.006-.009.01-.014.016-.015s.012-.003.019-.003H17.794v.79h-.098v-.633.001l-.282.493a.04.04 0 0 1-.016.018.046.046 0 0 1-.023.006h-.017c-.009 0-.017-.002-.024-.006s-.013-.01-.017-.018l-.29-.496v.634h-.095v-.788H17.019c.007 0 .013.001.019.003a.028.028 0 0 1 .015.015l.287.486a.17.17 0 0 1 .014.027v.001zm1.055-.039v.296h-.11v-.788h.254c.045 0 .089.006.131.018l-.003-.001a.27.27 0 0 1 .097.049.21.21 0 0 1 .055.077.27.27 0 0 1-.001.202.222.222 0 0 1-.059.079.275.275 0 0 1-.095.052l-.002.001a.421.421 0 0 1-.132.018l-.133-.002zm0-.085h.133a.301.301 0 0 0 .085-.012.186.186 0 0 0 .062-.034.134.134 0 0 0 .037-.051v-.001a.167.167 0 0 0 .013-.065v-.01c0-.02-.004-.04-.012-.057v.001a.16.16 0 0 0-.038-.054.219.219 0 0 0-.148-.042h.001-.133v.325zm1.475.382h-.089a.048.048 0 0 1-.023-.007.049.049 0 0 1-.014-.018l-.075-.191h-.375l-.077.191a.049.049 0 0 1-.014.018.038.038 0 0 1-.023.008h-.088l.329-.79h.114l.334.79zm-.543-.294h.31l-.131-.322a.52.52 0 0 1-.024-.07l-.001-.004-.013.041a.249.249 0 0 1-.013.036l.001-.003-.13.321zm1.017-.493a.08.08 0 0 1 .017.014l.48.595v-.613h.098v.79h-.056a.046.046 0 0 1-.021-.005.05.05 0 0 1-.017-.015l-.48-.595v.614h-.098v-.79h.058c.007 0 .013.001.02.004zm1.404.472v.314h-.11v-.314l-.303-.476h.1c.008 0 .016.003.022.007a.065.065 0 0 1 .015.018l.19.307a.459.459 0 0 1 .034.07l.014-.034a.247.247 0 0 1 .019-.036l.187-.309a.115.115 0 0 1 .014-.017.033.033 0 0 1 .022-.008h.101l-.304.478zm-4.463-1.801c.048.006.096.011.145.015.74-.316 1.367-.832 1.801-1.485s.656-1.413.639-2.186l-.816-.777a4.296 4.296 0 0 1-.235 2.484l.01-.029a4.542 4.542 0 0 1-1.545 1.978z"/><path fill="#afb1b8" style="fill:var(--color1, #afb1b8)" d="m17.007 12.048.022.004a4.4 4.4 0 0 0 1.632-2.036 4.185 4.185 0 0 0 .144-2.587l.007.029-1.162-1.107c.364.687.577 1.502.577 2.366 0 .201-.012.4-.034.595l.002-.024a5.21 5.21 0 0 1-1.188 2.76zm3.941-2.707a4.016 4.016 0 0 1-1.367 2.183 4.257 4.257 0 0 1-.628.433l-.021.011a3.892 3.892 0 0 0 1.515-.817l-.005.004c.42-.367.752-.824.969-1.341l.009-.024-.471-.449z"/><path fill="#afb1b8" style="fill:var(--color1, #afb1b8)" d="m20.764 9.216-.671-.639a3.924 3.924 0 0 1-.639 2.078l.009-.015c-.4.622-.967 1.13-1.642 1.473h.003c.15 0 .301-.009.45-.026a4.15 4.15 0 0 0 1.62-1.132l.004-.005c.417-.476.72-1.062.861-1.708l.005-.026zm-3.66-3.332-.801-.764c-.716.263-1.331.727-1.766 1.329s-.669 1.316-.671 2.046c.003.808.288 1.591.811 2.227s1.253 1.087 2.076 1.283c.734-.852 1.164-1.905 1.227-3.006a5 5 0 0 0-.877-3.116zm5.509 3.214c-.003-.958-.404-1.877-1.115-2.554s-1.675-1.06-2.681-1.062c-.465 0-.926.081-1.359.241l4.902 4.67c.16-.382.253-.827.253-1.293v-.001z"/></symbol><symbol id="icon-Client2" viewBox="0 0 64 32"><path fill="#afb1b8" style="fill:var(--color1, #afb1b8)" d="M3.622.626h.029a4.843 4.843 0 0 1 .926.124V.139a4.262 4.262 0 0 0-.765-.124L3.797.014a6.24 6.24 0 0 0-.308-.015h-.098a6.355 6.355 0 0 0-1.565.202A6.38 6.38 0 0 0 .165.876v6.058a6.579 6.579 0 0 1 1.536-.607l.047-.01a6.6 6.6 0 0 1 1.31-.203l.018-.001h.018c.075-.004.15-.006.227-.006v-.621a7.305 7.305 0 0 0-1.778.241l.051-.011a8.043 8.043 0 0 0-.6.178l-.216.073V1.243l.092-.044A5.94 5.94 0 0 1 3.097.627l.016-.001h.02C3.219.622 3.305.62 3.39.62h.097c.045.001.09.002.134.005z"/><path fill="#afb1b8" style="fill:var(--color1, #afb1b8)" d="M5.144 1.266h-.006c-.317 0-.628-.027-.93-.078l.033.005a4.684 4.684 0 0 1-.282-.057v5.989c.388.096.787.143 1.187.14a6.419 6.419 0 0 0 1.61-.211l-.045.01a6.327 6.327 0 0 0 1.691-.692l-.03.016V.438a6.615 6.615 0 0 1-1.535.607l-.047.01a6.715 6.715 0 0 1-1.645.211zm2.394.103.216-.073v4.725l-.092.045a5.72 5.72 0 0 1-1.063.388l-.041.009a5.75 5.75 0 0 1-1.412.183c-.143 0-.284-.006-.421-.018l-.148-.013V1.756l.172.012a7.316 7.316 0 0 0 2.24-.229l-.051.011c.269-.07.47-.132.667-.2l-.067.02zM.584 9.005a.317.317 0 0 0-.229-.097H.343h.001-.005a.362.362 0 0 0-.136.027l.002-.001a.313.313 0 0 0-.177.178l-.001.002a.343.343 0 0 0-.025.134v.809a.378.378 0 0 0 .032.166.288.288 0 0 0 .192.167c.039.011.08.017.121.017a.342.342 0 0 0 .336-.341v-.09H.471v.076a.197.197 0 0 1-.013.069v-.001a.133.133 0 0 1-.031.046.149.149 0 0 1-.088.031l-.012.001a.107.107 0 0 1-.087-.044.188.188 0 0 1-.028-.1v-.763a.267.267 0 0 1 .026-.121.11.11 0 0 1 .104-.049H.341h.004c.037 0 .07.018.09.045a.171.171 0 0 1 .035.104V9.345h.209V9.258a.369.369 0 0 0-.027-.141l.001.003a.35.35 0 0 0-.071-.114zm1.257-.009a.372.372 0 0 0-.241-.089.36.36 0 0 0-.126.023.337.337 0 0 0-.193.177l-.001.002a.383.383 0 0 0-.031.157v.776a.361.361 0 0 0 .031.159.314.314 0 0 0 .082.109.362.362 0 0 0 .479-.001.321.321 0 0 0 .08-.109.376.376 0 0 0 .031-.159v-.783a.37.37 0 0 0-.032-.152l.001.002a.356.356 0 0 0-.08-.113zm-.099 1.046v.012a.136.136 0 0 1-.043.1c-.027.023-.062.036-.1.036s-.073-.014-.1-.036a.14.14 0 0 1-.043-.1l.001-.013v.001-.788c0-.039.016-.075.042-.1.027-.023.062-.036.1-.036s.073.014.1.036a.14.14 0 0 1 .043.1l-.001.013v-.001.777zm1.75.347v-1.47h-.203l-.267.778h-.004l-.269-.778h-.201v1.469h.21v-.894h.004l.206.632h.105l.207-.632h.004v.894h.21zm1.192-1.366a.285.285 0 0 0-.119-.08.444.444 0 0 0-.144-.023h-.319v1.47h.21v-.574h.108a.388.388 0 0 0 .189-.04.304.304 0 0 0 .114-.111l.001-.001c.024-.039.041-.083.048-.128s.011-.1.011-.154v-.014.001a.875.875 0 0 0-.02-.21.323.323 0 0 0-.077-.135zm-.108.448a.188.188 0 0 1-.02.078v-.001a.119.119 0 0 1-.053.051h-.001a.21.21 0 0 1-.088.019h-.011.001-.095v-.5h.118c.031 0 .06.007.086.019l-.001-.001a.12.12 0 0 1 .049.053v.001a.196.196 0 0 1 .018.082v.098c0 .034.002.07 0 .101h-.002zm1.1-.552h-.172l-.324 1.47h.21l.061-.316h.285l.062.316h.209l-.332-1.47zm-.193.954.103-.533h.004l.102.533h-.209zm1.546-.068h-.004l-.316-.885h-.201v1.47h.209v-.884h.004l.32.884h.197V8.921h-.209v.885zm1.28-.886-.169.585h-.004l-.169-.585h-.221l.288.849v.621h.21v-.621l.288-.848H8.31zM0 10.804h.101v.283h.068v-.283h.1v-.058h-.27v.058zm.848-.058-.132.341h.073l.028-.078h.136l.029.078h.075l-.136-.341H.848zm-.01.206.046-.127.046.127H.837zm.849.009h.079v.044a.127.127 0 0 1-.081.029H1.68a.084.084 0 0 1-.067-.033.141.141 0 0 1-.025-.081v-.008c0-.076.033-.114.098-.114h.007c.034 0 .062.023.07.054v.001l.067-.013c-.014-.067-.063-.1-.145-.1H1.68a.175.175 0 0 0-.115.044.164.164 0 0 0-.049.131v-.001.008c0 .046.017.088.044.12.03.031.072.05.119.05h.017a.202.202 0 0 0 .139-.055v-.134h-.148v.058zm.856-.215h-.069v.341h.239v-.058h-.17v-.283zm.725 0h-.069v.341h.069v-.341zm.708.228-.14-.228h-.067v.341h.064v-.223l.137.223h.068v-.341h-.063v.228zm.64-.037h.17v-.058h-.17v-.075h.183v-.058h-.252v.341h.259v-.058h-.19v-.092zm1.552-.056h-.134v-.134h-.068v.341h.068v-.149h.134v.149h.068v-.341h-.068v.135zm.644.056h.171v-.058h-.171v-.075h.183v-.058h-.252v.341h.259v-.058h-.19v-.092zm.873 0c.06-.009.09-.041.09-.095l.001-.01a.08.08 0 0 0-.034-.066.19.19 0 0 0-.087-.021l-.014.001h.001-.145v.341h.068v-.143h.02a.1.1 0 0 1 .038.008h-.001c.01.006.018.015.024.025l.074.108h.082l-.041-.067a.234.234 0 0 0-.075-.081l-.001-.001zm-.069-.047h-.051v-.086h.054l.014-.001c.02 0 .039.003.056.009h-.001a.045.045 0 0 1 .01.054.047.047 0 0 1-.013.015.2.2 0 0 1-.056.008l-.014-.001h.001zm.727.047h.17v-.058h-.17v-.075h.183v-.058h-.252v.341h.259v-.058h-.19v-.092z"/></symbol><symbol id="icon-Client1" viewBox="0 0 64 32"><path fill="#afb1b8" style="fill:var(--color1, #afb1b8)" d="m1.28 0 1.559 1.476h4.349v4.117l1.559 1.476V0H1.28z"/><path fill="#afb1b8" style="fill:var(--color1, #afb1b8)" d="M0 1.414v6.867h7.253V5.552L2.885 1.416 0 1.414zm5.872 5.862H1.148V2.658h.334v4.306h4.39v.313zM2.089 9.554l.175-.359h.146l-.255.479v.279h-.132v-.279l-.254-.479h.146l.175.359zm.749.222h-.294l-.061.177h-.137l.286-.758h.118l.287.758h-.138l-.062-.177zm-.257-.106h.22l-.11-.315-.11.315zm.776.078c0-.035.01-.067.029-.096s.057-.064.113-.105a.525.525 0 0 1-.061-.092l-.001-.003a.183.183 0 0 1-.017-.075c0-.06.018-.106.054-.141s.085-.052.146-.052c.055 0 .1.016.135.049s.053.073.053.12v.001a.161.161 0 0 1-.025.087V9.44a.28.28 0 0 1-.078.079l-.001.001-.052.038.147.173a.306.306 0 0 0 .032-.139h.11a.38.38 0 0 1-.066.23l.111.132h-.147l-.043-.051a.312.312 0 0 1-.186.061h-.008a.261.261 0 0 1-.18-.06.2.2 0 0 1-.067-.149v-.007zm.251.114a.19.19 0 0 0 .12-.043l-.166-.195-.016.012c-.042.032-.063.068-.063.108a.11.11 0 0 0 .034.085c.022.02.052.033.085.033h.006zm-.07-.488c0 .029.018.066.054.11l.058-.039.016-.013a.093.093 0 0 0 .032-.071v-.004a.07.07 0 0 0-.022-.05.08.08 0 0 0-.054-.021h-.006a.077.077 0 0 0-.056.025.09.09 0 0 0-.022.06v.003zm1.378.332c-.008.081-.038.144-.09.189s-.121.068-.208.068a.295.295 0 0 1-.16-.043.289.289 0 0 1-.106-.121l-.001-.002a.429.429 0 0 1-.039-.181v-.074c0-.071.013-.134.038-.189s.062-.097.109-.126a.302.302 0 0 1 .165-.044c.084 0 .151.023.202.068s.081.11.089.193h-.131c-.006-.054-.022-.094-.048-.118s-.063-.036-.112-.036c-.057 0-.101.021-.132.063s-.046.103-.047.184v.067c0 .082.015.144.044.188s.073.065.129.065c.052 0 .091-.012.117-.035s.043-.062.05-.116h.131zm.723-.113c0 .074-.013.14-.038.196s-.063.099-.111.129-.102.045-.165.045-.116-.015-.164-.045a.297.297 0 0 1-.111-.127l-.001-.002a.444.444 0 0 1-.04-.185v-.051c0-.074.013-.139.039-.196a.29.29 0 0 1 .275-.175.29.29 0 0 1 .275.173.459.459 0 0 1 .039.195v.042zm-.132-.039a.33.33 0 0 0-.048-.193.154.154 0 0 0-.128-.067h-.012c-.053 0-.1.026-.128.067v.001a.327.327 0 0 0-.049.189v.044c0 .083.016.148.049.193s.078.068.135.068c.058 0 .103-.022.134-.067s.047-.109.047-.195v-.039z"/></symbol><symbol id="icon-twitter-icon" viewBox="0 0 64 32"><path fill="#afb1b8" style="fill:var(--color1, #afb1b8)" d="M4.267.81a1.777 1.777 0 0 1-.495.137l-.009.001a.874.874 0 0 0 .383-.477l.002-.006c-.16.096-.345.17-.543.21l-.011.002a.874.874 0 0 0-1.512.597.92.92 0 0 0 .02.199A2.474 2.474 0 0 1 .299.558a.876.876 0 0 0 .268 1.169.853.853 0 0 1-.399-.11l.004.002v.01a.88.88 0 0 0 .695.859l.006.001a.864.864 0 0 1-.222.029H.643a.766.766 0 0 1-.166-.015.883.883 0 0 0 .817.609 1.744 1.744 0 0 1-1.083.373h-.01a1.79 1.79 0 0 1-.209-.013L0 3.473a2.44 2.44 0 0 0 1.334.393h.008c1.61 0 2.49-1.333 2.49-2.489 0-.038-.001-.076-.003-.113.173-.125.319-.275.434-.447l.004-.006z"/></symbol><symbol id="icon-smartphone" viewBox="0 0 21 32"><path fill="#757575" style="fill:var(--color2, #757575)" d="M18.133 0H3.2C1.436 0 0 1.34 0 2.987v25.89c0 1.647 1.436 2.987 3.2 2.987h14.933c1.764 0 3.2-1.34 3.2-2.987V2.987c0-1.647-1.436-2.987-3.2-2.987zM3.2 1.99h14.933c.589 0 1.067.448 1.067.996v20.911H2.133V2.986c0-.548.478-.996 1.067-.996zm14.933 27.883H3.2c-.589 0-1.067-.448-1.067-.996V25.89H19.2v2.987c0 .548-.478.994-1.067.994z"/><path fill="#757575" style="fill:var(--color2, #757575)" d="M5.022 27.177a.947.947 0 0 1 0 1.407l-.001.001c-.198.182-.464.293-.755.293s-.557-.111-.756-.294l.001.001a.947.947 0 0 1 0-1.407l.001-.001c.198-.182.464-.293.755-.293s.557.111.756.294l-.001-.001z"/></symbol><symbol id="icon-linkedin-icon" viewBox="0 0 64 32"><path fill="#afb1b8" style="fill:var(--color1, #afb1b8)" d="M4.266 4.267h.001V2.702c0-.765-.165-1.355-1.06-1.355-.43 0-.719.236-.837.46h-.012v-.388h-.849v2.848h.884v-1.41c0-.371.07-.731.53-.731.453 0 .46.424.46.754v1.387h.883zM.07 1.418h.885v2.849H.07V1.418zM.512 0A.512.512 0 0 0 0 .512c0 .283.23.517.512.517s.512-.234.512-.517A.512.512 0 0 0 .512 0z"/></symbol><symbol id="icon-instagram-icon" viewBox="0 0 64 32"><path fill="#afb1b8" style="fill:var(--color1, #afb1b8)" d="M4.262 1.254a1.548 1.548 0 0 0-.099-.518 1.056 1.056 0 0 0-.247-.378 1.061 1.061 0 0 0-.37-.244L3.539.112a1.58 1.58 0 0 0-.518-.099C2.793.002 2.72 0 2.141 0s-.652.003-.879.013C1.035.023.879.059.745.112a1.06 1.06 0 0 0-.379.247C.26.463.177.589.123.729L.121.736a1.553 1.553 0 0 0-.099.518c-.011.228-.013.301-.013.88s.003.652.013.879c.01.227.047.382.099.518.057.148.141.274.246.378.107.108.236.192.378.246.136.053.291.089.518.099.228.01.3.013.879.013s.652-.003.879-.013c.227-.01.382-.046.518-.099.288-.113.511-.337.622-.617l.003-.007a1.58 1.58 0 0 0 .099-.518c.01-.228.012-.3.012-.879s-.001-.652-.011-.879zm-.384 1.742a1.174 1.174 0 0 1-.073.396.71.71 0 0 1-.401.403l-.005.002a1.174 1.174 0 0 1-.396.073c-.225.01-.292.013-.862.013s-.638-.003-.862-.013a1.174 1.174 0 0 1-.396-.073.662.662 0 0 1-.245-.159.67.67 0 0 1-.158-.24l-.002-.005a1.174 1.174 0 0 1-.073-.396c-.01-.225-.013-.293-.013-.862s.003-.638.013-.862C.414 1.065.449.952.478.877a.652.652 0 0 1 .16-.245.665.665 0 0 1 .241-.158L.884.472c.075-.029.188-.064.396-.073.225-.01.293-.012.862-.012s.638.003.862.012c.208.009.321.044.396.073a.653.653 0 0 1 .245.159.661.661 0 0 1 .159.245c.029.075.064.188.073.396.01.225.013.292.013.862s-.003.636-.013.861z"/><path fill="#afb1b8" style="fill:var(--color1, #afb1b8)" d="M2.141 1.038c-.605 0-1.096.491-1.096 1.096a1.097 1.097 0 0 0 2.192.001v-.001c0-.605-.491-1.096-1.096-1.096zm0 1.807a.71.71 0 1 1 0-1.422.71.71 0 1 1 0 1.422zM3.537.994a.256.256 0 0 1-.512 0 .256.256 0 0 1 .512 0z"/></symbol><symbol id="icon-icon-send" viewBox="0 0 32 32"><path fill="#fff" style="fill:var(--color3, #fff)" d="M32 0 0 18l10.227 3.787L26 7 14.003 23.187l.009.003-.012-.003V32l5.735-6.691L27.002 28l4.999-28z"/></symbol><symbol id="icon-facebook-icon" viewBox="0 0 64 32"><path fill="#afb1b8" style="fill:var(--color1, #afb1b8)" d="M2.844.708h.39V.03A4.88 4.88 0 0 0 2.686 0h-.021.001c-.562 0-.947.353-.947 1.003V1.6h-.62v.758h.62v1.908h.76V2.358h.595l.094-.758h-.689v-.523c0-.219.059-.369.365-.369z"/></symbol><symbol id="icon-envelope" viewBox="0 0 43 32"><path fill="#757575" style="fill:var(--color2, #757575)" d="M38.667 0H4C1.795 0 0 1.675 0 3.733v22.405c0 2.059 1.795 3.733 4 3.733h34.667c2.205 0 4-1.675 4-3.733V3.733c0-2.059-1.795-3.733-4-3.733zm0 2.488c.181 0 .355.037.512.099L21.334 17.024 3.489 2.587c.152-.062.327-.098.512-.099h34.667zm0 24.893H4c-.736 0-1.333-.557-1.333-1.243V5.215L20.459 19.61c.235.189.537.304.866.304h.017c.329 0 .631-.115.869-.306l-.003.002L40 5.215v20.923c0 .685-.597 1.243-1.333 1.243z"/></symbol><symbol id="icon-diagram1" viewBox="0 0 32 32"><path fill="#2196f3" style="fill:var(--color4, #2196f3)" d="M14.926 14.965h1.066v4.798h-1.066v-4.798zm4.264 2.132h1.066v2.665H19.19v-2.665zm-8.529 1.599h1.066v1.066h-1.066v-1.066zm-3.198-.533h1.066v1.6H7.463v-1.6z"/><path fill="#212121" style="fill:var(--color5, #212121)" d="M1.599 28.291h25.586a1.6 1.6 0 0 0 1.599-1.599V24.56a1.6 1.6 0 0 0-1.599-1.599h-.533V9.667l3.028-2.868a1.608 1.608 0 1 0-.742-.752l-.004-.01-2.281 2.162v-1.23a1.6 1.6 0 0 0-1.599-1.599H3.731a1.6 1.6 0 0 0-1.599 1.599v15.992h-.533A1.6 1.6 0 0 0 0 24.56v2.132a1.6 1.6 0 0 0 1.599 1.599zM30.384 4.837a.533.533 0 0 1 0 1.066.533.533 0 0 1 0-1.066zM3.198 6.969c0-.294.239-.533.533-.533h21.323c.294 0 .533.239.533.533v2.239l-1.066 1.013V8.036a.534.534 0 0 0-.534-.534H4.798a.534.534 0 0 0-.534.533v13.327c0 .294.239.533.534.533h19.189a.534.534 0 0 0 .534-.533v-9.675l1.066-1.01V22.96H3.198V6.969zm4.798 6.93h-.005a1.6 1.6 0 1 0 1.112 2.748l1.853.93a.533.533 0 0 0 .636-.123l3.939-4.431 3.872 2.902a.534.534 0 0 0 .686-.039l3.365-3.188v8.131H5.331V8.568h18.123v2.661l-3.771 3.572-3.904-2.927a.534.534 0 0 0-.718.071v.001l-3.993 4.493-1.493-.746c.01-.056.017-.123.02-.19V15.5a1.6 1.6 0 0 0-1.599-1.599zm.533 1.599a.533.533 0 0 1-1.066 0 .533.533 0 0 1 1.066 0zm3.198 8.528h5.33v.533a.533.533 0 0 1-.533.533h-4.265a.533.533 0 0 1-.533-.533v-.533zm-10.66.534c0-.294.238-.533.533-.533h9.062v.533a1.6 1.6 0 0 0 1.599 1.599h4.265a1.6 1.6 0 0 0 1.599-1.599v-.533h9.062c.294 0 .533.239.533.533v2.132a.533.533 0 0 1-.533.533H1.601a.533.533 0 0 1-.533-.533V24.56z"/></symbol><symbol id="icon-clock1" viewBox="0 0 32 32"><path fill="#212121" style="fill:var(--color5, #212121)" d="M31.296 15.301C31.295 6.849 24.441-.002 15.988 0S.685 6.855.687 15.308c.002 6.788 4.422 12.543 10.541 14.545l.108.031a.667.667 0 0 0 .529-.065.636.636 0 0 0 .283-.357l3.865-12.25a1.913 1.913 0 1 0-.852-3.63l.011-.005-5.106-5.107a.638.638 0 0 0-.902.902l5.103 5.109a1.847 1.847 0 0 0-.191.826c0 .602.283 1.137.723 1.48l.004.003-3.682 11.673C3.843 25.782.117 17.709 2.797 10.431S13.551-.573 20.829 2.108c7.278 2.681 11.004 10.754 8.323 18.032-1.345 3.581-4.003 6.406-7.374 7.938l-.088.036-.398-1.874a.639.639 0 0 0-1.05-.343l.001-.001-3.837 3.426a.637.637 0 0 0 .227 1.083l.005.001 4.899 1.563a.637.637 0 0 0 .818-.744l.001.004-.391-1.839c5.528-2.374 9.329-7.772 9.329-14.057v-.034.002zm-15.304-.637a.638.638 0 0 1 0 1.276.638.638 0 0 1 0-1.276zm2.1 14.864 2.184-1.948.603 2.84-2.787-.892z"/><path fill="#2196f3" style="fill:var(--color4, #2196f3)" d="M15.354 3.185V4.46a.638.638 0 0 0 1.276 0V3.185a.638.638 0 1 0-1.276 0zM3.876 14.664a.638.638 0 0 0 0 1.276h1.275a.638.638 0 0 0 0-1.276H3.876zm24.232 1.275a.638.638 0 0 0 0-1.276h-1.275a.638.638 0 0 0 0 1.276h1.275z"/></symbol><symbol id="icon-astronaut1" viewBox="0 0 32 32"><path fill="#2196f3" style="fill:var(--color4, #2196f3)" d="M31.974 4.524a.535.535 0 0 0-.427-.362h-.003l-1.91-.278-.855-1.731c-.179-.365-.777-.365-.956 0l-.855 1.731-1.911.278a.534.534 0 0 0-.296.91l1.383 1.348-.326 1.903a.536.536 0 0 0 .525.624.524.524 0 0 0 .252-.064l-.003.001 1.708-.899 1.709.899a.534.534 0 0 0 .773-.565v.003l-.326-1.903 1.383-1.348a.532.532 0 0 0 .133-.551l.001.004zm-2.463 1.327a.534.534 0 0 0-.153.472l.191 1.114-1.001-.526a.523.523 0 0 0-.499.002l.003-.001-1.001.526.192-1.114a.533.533 0 0 0-.153-.472l-.811-.789 1.119-.163a.532.532 0 0 0 .402-.292l.5-1.013.501 1.013a.532.532 0 0 0 .402.292l1.119.162-.809.79zm-3.377 14.671h-1.067v1.067h1.067v-1.067zm0 2.134h-1.067v1.066h1.067v-1.066zm1.066-1.067h-1.067v1.067H27.2v-1.067zM25.067 21.589H24v1.067h1.067v-1.067zm-2.667 4.8h-1.067v1.067H22.4v-1.067zm0 2.134h-1.067v1.067H22.4v-1.067zm1.066-1.067h-1.067v1.067h1.067v-1.067zm-2.132 0h-1.067v1.067h1.067v-1.067zM16 24.256h-1.067v1.067H16v-1.067zm0 2.133h-1.067v1.067H16v-1.067zm1.067-1.067H16v1.067h1.067v-1.067zm-2.134 0h-1.066v1.067h1.066v-1.067zm-9.066-19.2H4.8v1.066h1.067V6.122zm0 2.134H4.8v1.066h1.067V8.256zm1.066-1.067H5.866v1.067h1.066V7.189zm-2.133 0H3.733v1.067H4.8V7.189z"/><path fill="#212121" style="fill:var(--color5, #212121)" d="M24.715 14.16a1.774 1.774 0 0 0-1.179-.703l-.009-.001a1.769 1.769 0 0 0-1.344.355l.004-.003-1.253.96-1.898 1.417-1.358-.541c2.421-1.086 4.113-3.508 4.113-6.32 0-3.823-3.122-6.934-6.961-6.934S7.869 5.5 7.869 9.324c0 1.386.415 2.674 1.12 3.759l-2.768-.024c-.009 0-.016.005-.023.005a.517.517 0 0 0-.159.033l.004-.001c-.013.005-.026.007-.038.013-.006.003-.013.003-.019.006l-3.233 1.596-.001.001-1.893.91a.429.429 0 0 0-.064.036l.001-.001a1.782 1.782 0 0 0-.594 2.306l-.005-.01c.22.424.592.742 1.043.885l.013.003a1.772 1.772 0 0 0 1.388-.133l-.009.005 1.388-.738 2.264-1.169 1.357-.008-5.442 5.415-.001.001-1.339 1.333c-.303.299-.49.714-.49 1.173v.005a1.66 1.66 0 0 0 1.666 1.663h.004a1.67 1.67 0 0 0 1.18-.485l1.314-1.309 1.741-1.3.901.897-3.102 3.088a1.643 1.643 0 0 0-.491 1.173v.004a1.662 1.662 0 0 0 1.666 1.664h.003a1.67 1.67 0 0 0 1.18-.485l4.488-4.472c.007-.006.016-.009.022-.016l5.166-5.658 3.471.494a.474.474 0 0 0 .262-.032c.018-.006.033-.015.05-.023.019-.01.039-.015.058-.027l3.213-2.133c.012-.008.018-.021.029-.03.013-.01.029-.014.041-.026l1.271-1.191c.348-.326.564-.787.564-1.3 0-.4-.132-.769-.355-1.067l.003.005zM2.13 17.77a.71.71 0 0 1-.558.052.717.717 0 0 1-.214-1.258l.002-.001 1.314-.632.316.924.133.389-.992.527zm3.497-1.828-1.548.8-.255-.746-.184-.537 2.027-1.001-.04 1.484zm15.1-6.62c0 .918-.219 1.785-.599 2.56l-4.181-1.899a1.865 1.865 0 0 0-.782-1.384l-.006-.004 1.463-4.861c2.378.756 4.105 2.974 4.105 5.588zm-11.789 0c0-3.235 2.644-5.867 5.894-5.867.253 0 .5.022.745.053l-1.432 4.753c-.019 0-.037-.006-.057-.006h-.001a1.872 1.872 0 0 0-1.872 1.867 1.873 1.873 0 0 0 1.872 1.867h.001c.695 0 1.295-.383 1.618-.944l3.863 1.755a5.893 5.893 0 0 1-4.737 2.389c-3.25 0-5.894-2.632-5.894-5.867zm5.957.8c0 .441-.362.8-.806.8h-.001a.804.804 0 0 1-.804-.8c0-.441.361-.8.806-.8s.806.359.806.8zM2.464 25.146a.606.606 0 0 1-.855.001.591.591 0 0 1 0-.844l.962-.959.852.848-.959.955zm3.214 3.734a.606.606 0 0 1-.855.001.591.591 0 0 1 0-.844l.963-.959.852.848-.96.955zm3.482-3.469-.001.001-1.765 1.76-.852-.848 1.765-1.757a.527.527 0 0 0 .09-.136c.007-.014.02-.026.026-.04.016-.041.019-.085.026-.128.003-.025.014-.048.014-.073 0-.036-.013-.07-.02-.106-.006-.032-.006-.064-.019-.096a.536.536 0 0 0-.092-.138c-.01-.012-.014-.027-.025-.038h-.001l-.001-.002-1.607-1.6c-.017-.017-.039-.024-.058-.038a.563.563 0 0 0-.084-.057l-.003-.001a.559.559 0 0 0-.09-.031l-.003-.001a.502.502 0 0 0-.101-.02h-.002l-.023-.001a.603.603 0 0 0-.075.005h.003c-.036.005-.069.009-.104.021a.512.512 0 0 0-.097.046l.002-.001c-.02.011-.042.015-.061.029l-1.773 1.324-.901-.897 2.399-2.386 4.361 4.289-.928.919zm6.819-7.017c-.015-.002-.03.004-.045.003l-.026-.001a.562.562 0 0 0-.092.008h.003a.484.484 0 0 0-.187.07l.002-.001a.528.528 0 0 0-.083.062c-.013.011-.028.016-.04.029l-4.698 5.146-4.328-4.256 2.833-2.818a.535.535 0 0 0-.378-.911h-.002l-2.219.013.028-1.607 3.104.027a6.928 6.928 0 0 0 4.978 2.101h.003c.438 0 .864-.046 1.28-.122.04.032.08.064.129.085l2.41.96.152.759.178.885-3.003-.427zm4.041.178-.313-1.558 1.446-1.08.946 1.257-2.08 1.381zm3.754-2.831-.838.785-.931-1.237.831-.637a.735.735 0 0 1 .543-.143.718.718 0 0 1 .621.71.71.71 0 0 1-.226.521z"/><path fill="#212121" style="fill:var(--color5, #212121)" d="m13.602 18.544-2.143-2.134a.53.53 0 0 0-.752 0l-2.143 2.133a.535.535 0 0 0 0 .756l2.143 2.134a.53.53 0 0 0 .752 0l2.143-2.134a.532.532 0 0 0 0-.756zm-2.519 1.759-1.387-1.381 1.386-1.381 1.387 1.381-1.387 1.381zm6.081-15.232-.258 1.036c.071.018 1.738.452 1.738 2.149h1.067c0-2.017-1.666-2.965-2.547-3.184zm2.547 4.251h-1.067v1.066h1.067V9.322z"/></symbol><symbol id="icon-antenna1" viewBox="0 0 32 32"><path fill="#212121" style="fill:var(--color5, #212121)" d="m30.773 22.098-8.443-8.505.937-4.616c.225.09.485.144.758.146h.033a2.16 2.16 0 1 0-2.029-1.42l-.005-.015-4.96.606L8.973.161a.53.53 0 0 0-.376-.16.536.536 0 0 0-.373.155L6.712 1.66a.535.535 0 0 0 0 .754l.814.825C6.383 5.301 5.71 7.761 5.71 10.378c0 4.106 1.656 7.824 4.336 10.525l-.001-.001a.49.49 0 0 0 .146.097 2.986 2.986 0 0 0-.052.546v6.188h-6.4a2.669 2.669 0 0 0-2.667 2.666v1.067c0 .295.239.534.534.534H26.14a.534.534 0 0 0 .533-.534v-1.067a2.67 2.67 0 0 0-2.666-2.666h-6.4v-2.742a14.784 14.784 0 0 0 10.166-1.502l-.077.039.818.823a.534.534 0 0 0 .376.16.536.536 0 0 0 .373-.155l1.512-1.504a.535.535 0 0 0 0-.754zM23.28 6.233a1.067 1.067 0 1 1 .752 1.822h-.004a1.066 1.066 0 0 1-.747-1.822h-.002zm-1.256 3.504-.598 2.946-1.175-1.183 1.774-1.763zm-.605-.902-1.92 1.909-1.486-1.493 3.406-.416zM24.004 28.8a1.6 1.6 0 0 1 1.6 1.6v.534H2.138V30.4a1.6 1.6 0 0 1 1.6-1.6h20.267zm-7.466-2.134v1.067h-5.334v-1.067h5.334zM11.204 25.6v-4.053c0-1.294 1.196-2.346 2.667-2.346s2.667 1.053 2.667 2.346V25.6h-5.334zm6.4-1.696v-2.357c0-1.882-1.675-3.413-3.733-3.413h-.058c-1.353 0-2.54.707-3.213 1.771l-.009.016a13.817 13.817 0 0 1-3.812-9.55c0-2.314.567-4.496 1.569-6.414l-.036.077 18.602 18.709c-1.823.947-3.979 1.502-6.266 1.502-1.079 0-2.128-.124-3.136-.357l.093.018zm11.289-.684L7.836 2.039l.754-.752 7.935 7.98c.004 0 .006.007.01.01l13.114 13.191-.757.752z"/><path fill="#2196f3" style="fill:var(--color4, #2196f3)" d="M13.876 20.267h-.007a1.6 1.6 0 0 0-.003 3.2h.007a1.6 1.6 0 0 0 .002-3.2zm.373 1.978a.533.533 0 1 1-.378-.911.533.533 0 0 1 .374.911h.005z"/></symbol></defs></svg>